<mxfile host="app.diagrams.net" modified="2024-03-07T06:36:06.447Z" agent="Mozilla/5.0 (Windows NT 10.0; Win64; x64) AppleWebKit/537.36 (KHTML, like Gecko) Chrome/122.0.0.0 Safari/537.36" etag="d17gR8DXC0pR07OCOaT3" version="24.0.2" type="github">
  <diagram name="Page-1" id="AeyaRtbbY56H5-KZ7d-d">
    <mxGraphModel dx="1748" dy="926" grid="1" gridSize="10" guides="1" tooltips="1" connect="1" arrows="1" fold="1" page="1" pageScale="1" pageWidth="1100" pageHeight="850" math="0" shadow="0">
      <root>
        <mxCell id="0" />
        <mxCell id="1" parent="0" />
        <mxCell id="YWd4cL3F-U_-IMffj6Vy-1" value="" style="rounded=0;whiteSpace=wrap;html=1;" parent="1" vertex="1">
          <mxGeometry x="340" y="160" width="430" height="480" as="geometry" />
        </mxCell>
        <mxCell id="mABS283YH0dpvchZODnl-3" style="edgeStyle=orthogonalEdgeStyle;rounded=0;orthogonalLoop=1;jettySize=auto;html=1;" edge="1" parent="1" source="YWd4cL3F-U_-IMffj6Vy-2" target="YWd4cL3F-U_-IMffj6Vy-1">
          <mxGeometry relative="1" as="geometry" />
        </mxCell>
        <mxCell id="YWd4cL3F-U_-IMffj6Vy-2" value="" style="ellipse;whiteSpace=wrap;html=1;" parent="1" vertex="1">
          <mxGeometry x="70" y="160" width="120" height="80" as="geometry" />
        </mxCell>
        <mxCell id="mABS283YH0dpvchZODnl-1" style="edgeStyle=orthogonalEdgeStyle;rounded=0;orthogonalLoop=1;jettySize=auto;html=1;exitX=0;exitY=0;exitDx=0;exitDy=0;" edge="1" parent="1" source="YWd4cL3F-U_-IMffj6Vy-2" target="YWd4cL3F-U_-IMffj6Vy-2">
          <mxGeometry relative="1" as="geometry" />
        </mxCell>
        <mxCell id="mABS283YH0dpvchZODnl-2" style="edgeStyle=orthogonalEdgeStyle;rounded=0;orthogonalLoop=1;jettySize=auto;html=1;entryX=0.296;entryY=0.002;entryDx=0;entryDy=0;entryPerimeter=0;" edge="1" parent="1" source="YWd4cL3F-U_-IMffj6Vy-2" target="YWd4cL3F-U_-IMffj6Vy-1">
          <mxGeometry relative="1" as="geometry" />
        </mxCell>
      </root>
    </mxGraphModel>
  </diagram>
</mxfile>
